<svg width="26" height="24" viewBox="0 0 26 24" fill="none" xmlns="http://www.w3.org/2000/svg">
    <path d="M7 4.9434V11.4333C7 11.8148 7.21707 12.1631 7.55958 12.3311L13 15M7 4.9434L13 7.88679M7 4.9434L12.5596 2.21606C12.8374 2.07978 13.1626 2.07978 13.4404 2.21606L19 4.9434M13 15V7.88679M13 15L18.4404 12.3311C18.7829 12.1631 19 11.8148 19 11.4333V4.9434M13 7.88679L19 4.9434" stroke="white" stroke-width="1.5"/>
    <path d="M22.512 11C22.512 11 25.1733 12.5135 24.991 14.6757C24.7358 17.7027 19 19 19 19" stroke="white" stroke-width="1.5" stroke-linecap="round" stroke-linejoin="round"/>
    <path d="M3.89045 11C3.89045 11 0.798678 12.6471 1.01044 15C1.30691 18.2941 7.97046 19.7059 7.97046 19.7059" stroke="white" stroke-width="1.5" stroke-linecap="round" stroke-linejoin="round"/>
    <path d="M11.5853 19.8729L8.74996 18.2811V19.8235V21.7299L11.5853 19.8729Z" fill="white" stroke="white" stroke-width="1.5"/>
</svg>
