<svg width="24" height="24" viewBox="0 0 24 24" fill="none" xmlns="http://www.w3.org/2000/svg">
<path d="M12.6284 18.393V6.18701H16.7084C20.4994 6.18701 22.8454 8.56701 22.8454 12.29C22.8454 16.013 20.4994 18.393 16.7084 18.393H12.6284ZM14.7534 16.523H16.7084C19.2244 16.523 20.7034 14.857 20.7034 12.29C20.7034 9.70601 19.2244 8.05701 16.6914 8.05701H14.7534V16.523Z" fill="white"/>
<path d="M6.658 18.58C4.261 18.58 2.357 17.288 2 14.84L4.091 14.449C4.295 15.928 5.332 16.778 6.624 16.778C7.95 16.778 8.885 16.064 8.885 14.806C8.885 13.565 7.899 13.021 6.488 13.021H5.281V11.185H6.471C7.763 11.185 8.562 10.624 8.562 9.536C8.562 8.465 7.848 7.802 6.641 7.802C5.366 7.802 4.516 8.72 4.278 10.046L2.323 9.689C2.646 7.632 4.261 6 6.709 6C9.157 6 10.602 7.428 10.602 9.417C10.602 10.658 9.871 11.695 8.868 12.052C10.041 12.426 10.976 13.344 10.976 14.942C10.976 16.897 9.327 18.58 6.658 18.58Z" fill="white"/>
</svg>
