<svg width="25" height="25" viewBox="0 0 25 25" fill="none" xmlns="http://www.w3.org/2000/svg">
<path d="M13.1892 19.393V7.18701H17.2692C21.0602 7.18701 23.4062 9.56701 23.4062 13.29C23.4062 17.013 21.0602 19.393 17.2692 19.393H13.1892ZM15.3142 17.523H17.2692C19.7852 17.523 21.2642 15.857 21.2642 13.29C21.2642 10.706 19.7852 9.05701 17.2522 9.05701H15.3142V17.523Z" fill="white"/>
<path d="M3 17.625L6.06 15.109C7.726 13.749 9.222 12.542 9.222 11.012C9.222 9.754 8.44 8.853 7.148 8.853C5.873 8.853 5.04 9.856 5.04 11.063C5.04 11.454 5.108 11.845 5.244 12.219H3.221C3.051 11.726 3 11.403 3 10.944C3 8.649 4.887 7 7.199 7C9.749 7 11.381 8.581 11.381 10.876C11.381 13.035 9.749 14.514 8.032 15.874L5.992 17.489H11.534V19.393H3V17.625Z" fill="white"/>
</svg>
