<svg width="56" height="56" viewBox="0 0 56 56" fill="none" xmlns="http://www.w3.org/2000/svg">
<g filter="url(#filter0_bd_305_2)">
<rect x="20.75" y="18.75" width="14.5" height="14.5" rx="7.25" stroke="white" stroke-opacity="0.5" stroke-width="1.5" shape-rendering="crispEdges"/>
<path fill-rule="evenodd" clip-rule="evenodd" d="M28 23.5C28.5523 23.5 29 23.0523 29 22.5C29 21.9477 28.5523 21.5 28 21.5C27.4477 21.5 27 21.9477 27 22.5C27 23.0523 27.4477 23.5 28 23.5ZM28 24.5C27.4477 24.5 27 24.9477 27 25.5V29.5C27 30.0523 27.4477 30.5 28 30.5C28.5523 30.5 29 30.0523 29 29.5V25.5C29 24.9477 28.5523 24.5 28 24.5Z" fill="white" fill-opacity="0.5"/>
</g>
<defs>
<filter id="filter0_bd_305_2" x="0" y="0" width="56" height="56" filterUnits="userSpaceOnUse" color-interpolation-filters="sRGB">
<feFlood flood-opacity="0" result="BackgroundImageFix"/>
<feGaussianBlur in="BackgroundImageFix" stdDeviation="7.85"/>
<feComposite in2="SourceAlpha" operator="in" result="effect1_backgroundBlur_305_2"/>
<feColorMatrix in="SourceAlpha" type="matrix" values="0 0 0 0 0 0 0 0 0 0 0 0 0 0 0 0 0 0 127 0" result="hardAlpha"/>
<feOffset dy="2"/>
<feGaussianBlur stdDeviation="10"/>
<feComposite in2="hardAlpha" operator="out"/>
<feColorMatrix type="matrix" values="0 0 0 0 0 0 0 0 0 0 0 0 0 0 0 0 0 0 0.1 0"/>
<feBlend mode="normal" in2="effect1_backgroundBlur_305_2" result="effect2_dropShadow_305_2"/>
<feBlend mode="normal" in="SourceGraphic" in2="effect2_dropShadow_305_2" result="shape"/>
</filter>
</defs>
</svg>
