<svg width="14" height="18" viewBox="0 0 14 18" fill="none" xmlns="http://www.w3.org/2000/svg">
<path fill-rule="evenodd" clip-rule="evenodd" d="M4.5 4.5C4.5 3.11929 5.61929 2 7 2C8.38071 2 9.5 3.11929 9.5 4.5V7.00008C9.40307 7 9.30311 7 9.2 7H4.8C4.69689 7 4.59693 7 4.5 7.00008V4.5ZM2.5 7.07662V4.5C2.5 2.01472 4.51472 0 7 0C9.48528 0 11.5 2.01472 11.5 4.5V7.07662C11.8406 7.12428 12.1159 7.20159 12.362 7.32698C12.9265 7.6146 13.3854 8.07354 13.673 8.63803C14 9.27976 14 10.1198 14 11.8V13.2C14 14.8802 14 15.7202 13.673 16.362C13.3854 16.9265 12.9265 17.3854 12.362 17.673C11.7202 18 10.8802 18 9.2 18H4.8C3.11984 18 2.27976 18 1.63803 17.673C1.07354 17.3854 0.614601 16.9265 0.32698 16.362C0 15.7202 0 14.8802 0 13.2V11.8C0 10.1198 0 9.27976 0.32698 8.63803C0.614601 8.07354 1.07354 7.6146 1.63803 7.32698C1.88412 7.20159 2.15938 7.12428 2.5 7.07662Z" fill="white"/>
</svg>
